# Blender 4.0.2
# www.blender.org
mtllib mavarik.mtl
o Cube
v 0.191078 -1.436972 0.810155
v 0.191078 2.211781 0.810155
v 0.191078 -1.436972 1.215105
v 0.191078 2.211781 1.215105
v -0.191078 -1.436972 0.810155
v -0.191078 2.211781 0.810155
v -0.191078 -1.436972 1.215105
v -0.191078 2.211781 1.215105
vn -0.0000 -1.0000 -0.0000
vn -0.0000 -0.0000 1.0000
vn -1.0000 -0.0000 -0.0000
vn -0.0000 1.0000 -0.0000
vn 1.0000 -0.0000 -0.0000
vn -0.0000 -0.0000 -1.0000
vt 0.625000 0.500000
vt 0.875000 0.500000
vt 0.875000 0.750000
vt 0.625000 0.750000
vt 0.375000 0.750000
vt 0.625000 1.000000
vt 0.375000 1.000000
vt 0.375000 0.000000
vt 0.625000 0.000000
vt 0.625000 0.250000
vt 0.375000 0.250000
vt 0.125000 0.500000
vt 0.375000 0.500000
vt 0.125000 0.750000
s 0
usemtl Material.009
f 1/1/1 3/4/1 7/3/1 5/2/1
f 4/5/2 8/7/2 7/6/2 3/4/2
f 8/8/3 6/11/3 5/10/3 7/9/3
f 6/12/4 8/14/4 4/5/4 2/13/4
f 2/13/5 4/5/5 3/4/5 1/1/5
f 6/11/6 2/13/6 1/1/6 5/10/6
o Cube.001
v 0.207439 2.221937 0.812196
v 0.155775 3.750670 0.812196
v 0.207439 2.221937 1.217145
v 0.155775 3.750670 1.217145
v -0.174499 2.209029 0.812196
v -0.226164 3.737762 0.812196
v -0.174499 2.209029 1.217145
v -0.226164 3.737762 1.217145
vn 0.0338 -0.9994 -0.0000
vn -0.0000 -0.0000 1.0000
vn -0.9994 -0.0338 -0.0000
vn -0.0338 0.9994 -0.0000
vn 0.9994 0.0338 -0.0000
vn -0.0000 -0.0000 -1.0000
vt 0.625000 0.500000
vt 0.875000 0.500000
vt 0.875000 0.750000
vt 0.625000 0.750000
vt 0.375000 0.750000
vt 0.625000 1.000000
vt 0.375000 1.000000
vt 0.375000 0.000000
vt 0.625000 0.000000
vt 0.625000 0.250000
vt 0.375000 0.250000
vt 0.125000 0.500000
vt 0.375000 0.500000
vt 0.125000 0.750000
s 0
usemtl Material.009
f 9/15/7 11/18/7 15/17/7 13/16/7
f 12/19/8 16/21/8 15/20/8 11/18/8
f 16/22/9 14/25/9 13/24/9 15/23/9
f 14/26/10 16/28/10 12/19/10 10/27/10
f 10/27/11 12/19/11 11/18/11 9/15/11
f 14/25/12 10/27/12 9/15/12 13/24/12
o Cube.002
v -0.287309 3.769866 1.136382
v -0.287309 7.030480 1.136382
v -0.287309 3.769866 -1.136382
v -0.287309 7.030480 -1.136382
v 0.287309 3.769866 1.136382
v 0.287309 7.030480 1.136382
v 0.287309 3.769866 -1.136382
v 0.287309 7.030480 -1.136382
v 0.558863 3.769866 0.000000
v 0.558863 7.030480 0.000000
v 1.133481 3.769866 0.000000
v 1.133481 7.030480 0.000000
v -0.111087 3.769866 0.000000
v -0.957259 3.769866 1.136382
v -0.957259 7.030480 1.136382
v -0.111087 7.030480 0.000000
v -0.957259 7.030480 -1.136382
v -0.957259 3.769866 -1.136382
vn -0.0000 -1.0000 -0.0000
vn -0.0000 -0.0000 -1.0000
vn 0.8021 -0.0000 0.5972
vn -0.0000 -0.0000 1.0000
vn -0.0000 1.0000 -0.0000
vn 0.8021 -0.0000 -0.5972
vn -0.8021 -0.0000 0.5972
vn -0.8021 -0.0000 -0.5972
vt 0.125000 0.500000
vt 0.125000 0.625000
vt 0.375000 0.250000
vt 0.625000 0.250000
vt 0.625000 0.500000
vt 0.375000 0.500000
vt 0.375000 0.625000
vt 0.625000 0.625000
vt 0.625000 0.750000
vt 0.375000 0.750000
vt 0.625000 1.000000
vt 0.375000 1.000000
vt 0.125000 0.750000
vt 0.875000 0.625000
vt 0.875000 0.750000
vt 0.875000 0.500000
vt 0.375000 0.125000
vt 0.625000 0.125000
vt 0.375000 0.000000
vt 0.625000 0.000000
s 0
usemtl Material.007
f 19/29/13 25/30/13 29/30/13 34/29/13
f 19/31/14 20/32/14 24/33/14 23/34/14
f 27/35/15 28/36/15 22/37/15 21/38/15
f 21/38/16 22/37/16 18/39/16 17/40/16
f 25/30/13 27/35/13 21/38/13 17/41/13
f 28/36/17 26/42/17 18/43/17 22/37/17
f 24/33/17 20/44/17 26/42/17 28/36/17
f 19/29/13 23/34/13 27/35/13 25/30/13
f 23/34/18 24/33/18 28/36/18 27/35/18
f 20/32/14 19/31/14 34/31/14 33/32/14
f 29/45/19 32/46/19 33/32/19 34/31/19
f 30/47/20 31/48/20 32/46/20 29/45/20
f 17/40/16 18/39/16 31/39/16 30/40/16
f 18/43/17 26/42/17 32/42/17 31/43/17
f 26/42/17 20/44/17 33/44/17 32/42/17
f 25/30/13 17/41/13 30/41/13 29/30/13
o Cube.003
v -0.687651 8.316844 1.000000
v -0.687651 10.316844 1.000000
v -0.687651 8.316844 -1.000000
v -0.687651 10.316844 -1.000000
v 1.550727 8.700500 0.535320
v 1.550727 10.040111 0.535319
v 1.550727 8.700500 -0.535320
v 1.550727 10.040111 -0.535319
v -0.687651 8.316844 0.000000
v -0.687651 10.727455 0.000000
v 1.902044 8.501018 0.000000
v 2.003742 10.503695 0.000000
v -0.687651 9.316844 1.000000
v -0.687651 9.316844 -1.000000
v 1.550727 9.316844 -0.535320
v 1.550727 9.316844 0.535320
v -0.687651 9.522149 0.000000
v 1.312349 9.316844 -1.000000
v 1.312349 8.316844 -1.000000
v 1.825342 7.964694 0.000000
v 1.825342 11.079605 0.000000
v 1.312349 10.316844 1.000000
v 1.312349 9.316844 1.000000
v 1.312349 8.316844 1.000000
v 1.312349 10.316844 -1.000000
v 1.565706 8.510533 0.000000
v 1.667404 10.513210 0.000000
v 1.314535 9.326360 -0.368263
v 1.314535 9.326360 0.368263
v 1.307732 8.852911 -0.364284
v 1.308523 9.946915 0.364570
v 1.307732 8.852911 0.364284
v 1.308523 9.946915 -0.364570
v 1.214389 9.326360 -0.535320
v 1.214389 8.710015 -0.535320
v 1.590586 8.711750 0.000000
v 1.729004 10.294108 0.000000
v 1.214389 10.049626 0.535319
v 1.214389 9.326360 0.535320
v 1.214389 8.710015 0.535320
v 1.214389 10.049626 -0.535319
v 1.682357 9.522763 0.000000
v 1.783939 8.702847 0.000000
v 1.922356 10.285206 0.000000
v 1.507887 9.317457 -0.368263
v 1.507887 9.317457 0.368263
v 1.501085 8.844008 -0.364284
v 1.501875 9.938012 0.364570
v 1.501085 8.844008 0.364284
v 1.501875 9.938012 -0.364570
vn -1.0000 -0.0000 -0.0000
vn -0.0000 -0.0000 -1.0000
vn -0.0000 -0.0000 1.0000
vn -0.0769 -0.9851 0.1537
vn -0.0677 0.8680 0.4919
vn -0.0677 0.8680 -0.4919
vn -0.0769 -0.9851 -0.1537
vn -0.0211 -0.7469 0.6647
vn 0.8898 -0.0000 -0.4564
vn 0.8640 -0.0425 -0.5017
vn 0.8124 0.0826 0.5772
vn 0.8898 -0.0000 0.4564
vn 0.8640 -0.0425 0.5017
vn 0.8124 0.0826 -0.5772
vn 0.0325 0.7048 -0.7086
vn 0.0003 0.0060 1.0000
vn -0.0004 -0.0084 -1.0000
vn 0.0325 0.7048 0.7086
vn 0.0267 0.9423 0.3337
vn 0.0267 0.9423 -0.3337
vn -0.0211 -0.7469 -0.6647
vn 0.8692 -0.0072 -0.4944
vn 0.8182 0.0047 -0.5750
vn 0.7243 -0.0152 0.6893
vn 0.8692 -0.0072 0.4944
vn 0.8182 0.0047 0.5750
vn 0.7243 -0.0152 -0.6893
vn 0.8675 0.0052 -0.4973
vn 0.8675 0.0052 0.4973
vn 0.8170 -0.1367 0.5602
vn 0.8170 -0.1367 -0.5602
vn 0.8443 0.0602 -0.5324
vn 0.8443 0.0602 0.5324
vn -0.0004 -0.0084 1.0000
vn -0.0434 -0.9425 -0.3315
vn 0.0003 0.0060 -1.0000
vn -0.0434 -0.9425 0.3315
vt 0.500000 0.125000
vt 0.625000 0.125000
vt 0.625000 0.250000
vt 0.500000 0.250000
vt 0.625000 0.500000
vt 0.500000 0.500000
vt 0.490022 0.691915
vt 0.428747 0.691915
vt 0.500000 0.750000
vt 0.625000 0.750000
vt 0.625000 1.000000
vt 0.500000 1.000000
vt 0.125000 0.625000
vt 0.375000 0.625000
vt 0.375000 0.750000
vt 0.125000 0.750000
vt 0.625000 0.625000
vt 0.875000 0.625000
vt 0.875000 0.750000
vt 0.875000 0.500000
vt 0.125000 0.500000
vt 0.375000 0.500000
vt 0.565169 0.558085
vt 0.575225 0.634056
vt 0.500000 0.000000
vt 0.625000 0.000000
vt 0.375000 0.000000
vt 0.375000 0.125000
vt 0.565169 0.691915
vt 0.375000 1.000000
vt 0.428747 0.558085
vt 0.490022 0.558085
vt 0.375000 0.250000
vt 0.418391 0.621106
vt 0.546764 0.579600
vt 0.557214 0.637902
vt 0.546764 0.673207
vt 0.487053 0.669749
vt 0.443954 0.578047
vt 0.487053 0.579841
vt 0.434426 0.619633
vt 0.443954 0.670309
vt 0.500000 0.625000
s 0
usemtl Material.006
f 51/49/21 44/50/21 38/51/21 48/52/21
f 48/52/22 38/51/22 59/53/22 52/54/22
f 50/55/22 39/56/22 74/56/22 73/55/22
f 57/57/23 56/58/23 36/59/23 47/60/23
f 43/61/24 54/62/24 58/63/24 35/64/24
f 55/65/25 44/66/25 36/67/25 56/58/25
f 59/53/26 38/68/26 44/66/26 55/65/26
f 37/69/27 53/70/27 54/62/27 43/61/27
f 42/71/28 46/72/28 61/72/28 75/71/28
f 47/73/21 36/74/21 44/50/21 51/49/21
f 35/75/21 47/73/21 51/49/21 43/76/21
f 40/77/22 50/55/22 73/55/22 72/77/22
f 58/63/23 57/57/23 47/60/23 35/78/23
f 41/79/23 49/80/23 68/80/23 69/79/23
f 37/81/22 48/52/22 52/54/22 53/70/22
f 43/76/21 51/49/21 48/52/21 37/81/21
f 49/80/29 41/79/29 53/70/29 52/54/29
f 41/79/30 45/82/30 54/62/30 53/70/30
f 40/77/31 46/72/31 55/65/31 56/58/31
f 39/56/32 50/55/32 57/57/32 58/63/32
f 45/82/33 39/56/33 58/63/33 54/62/33
f 46/72/34 42/71/34 59/53/34 55/65/34
f 42/71/29 49/80/29 52/54/29 59/53/29
f 50/55/32 40/77/32 56/58/32 57/57/32
f 67/83/35 71/84/35 78/84/35 84/83/35
f 65/85/36 63/86/36 80/86/36 82/85/36
f 64/87/37 62/88/37 79/88/37 81/87/37
f 71/84/38 65/85/38 82/85/38 78/84/38
f 45/82/39 41/79/39 69/79/39 60/82/39
f 49/80/23 42/71/23 75/71/23 68/80/23
f 39/56/40 45/82/40 60/82/40 74/56/40
f 46/72/41 40/77/41 72/77/41 61/72/41
f 62/88/42 64/87/42 69/79/42 68/80/42
f 64/87/43 70/89/43 60/82/43 69/79/43
f 65/85/44 71/84/44 61/72/44 72/77/44
f 66/90/45 63/86/45 73/55/45 74/56/45
f 70/89/46 66/90/46 74/56/46 60/82/46
f 71/84/47 67/83/47 75/71/47 61/72/47
f 67/83/48 62/88/48 68/80/48 75/71/48
f 63/86/49 65/85/49 72/77/49 73/55/49
f 76/91/50 78/84/50 82/85/50 80/86/50
f 79/88/51 84/83/51 78/84/51 76/91/51
f 81/87/52 79/88/52 76/91/52 77/89/52
f 77/89/53 76/91/53 80/86/53 83/90/53
f 63/86/54 66/90/54 83/90/54 80/86/54
f 70/89/55 64/87/55 81/87/55 77/89/55
f 62/88/56 67/83/56 84/83/56 79/88/56
f 66/90/57 70/89/57 77/89/57 83/90/57
o Cube.004
v -0.596935 7.248136 3.532596
v -0.596935 8.282010 3.532596
v -0.596935 7.248136 -3.532596
v -0.596935 8.282010 -3.532596
v 0.596935 7.248136 3.532596
v 0.596935 8.282010 3.532596
v 0.596935 7.248136 -3.532596
v 0.596935 8.282010 -3.532596
v 0.837129 8.282010 -3.532596
v 0.837129 7.248136 -3.532596
v 0.837129 7.248136 3.532596
v 0.837129 8.282010 3.532596
v -0.073050 7.248136 -0.032591
v -0.073050 8.282010 -0.032591
v 1.120820 7.248136 -0.032591
v 1.120820 8.282010 -0.032591
v 1.361014 7.248136 -0.032591
v 1.361014 8.282010 -0.032591
v -0.412130 7.248136 -0.032329
v -0.936015 7.248136 3.532858
v -0.936015 8.282010 3.532858
v -0.412130 8.282010 -0.032329
v -0.936015 8.282010 -3.532334
v -0.936015 7.248136 -3.532334
vn -0.0000 -1.0000 -0.0000
vn -0.0000 -0.0000 -1.0000
vn -0.0000 -0.0000 1.0000
vn -0.0000 1.0000 -0.0000
vn 0.9894 -0.0000 0.1454
vn 0.9890 -0.0000 -0.1480
vn -0.9890 -0.0000 0.1480
vn -0.9894 -0.0000 -0.1454
vn -0.0008 -0.0000 -1.0000
vn 0.0008 -0.0000 1.0000
vt 0.125000 0.500000
vt 0.125000 0.623847
vt 0.375000 0.250000
vt 0.625000 0.250000
vt 0.625000 0.500000
vt 0.375000 0.500000
vt 0.625000 0.750000
vt 0.375000 0.750000
vt 0.625000 1.000000
vt 0.375000 1.000000
vt 0.375000 0.623847
vt 0.125000 0.750000
vt 0.625000 0.623847
vt 0.875000 0.623847
vt 0.875000 0.750000
vt 0.875000 0.500000
vt 0.375000 0.126153
vt 0.625000 0.126153
vt 0.375000 0.000000
vt 0.625000 0.000000
s 0
usemtl Material.007
f 87/92/58 97/93/58 103/93/58 108/92/58
f 87/94/59 88/95/59 92/96/59 91/97/59
f 90/98/60 89/99/60 95/99/60 96/98/60
f 89/99/60 90/98/60 86/100/60 85/101/60
f 97/93/58 99/102/58 89/99/58 85/103/58
f 100/104/61 98/105/61 86/106/61 90/98/61
f 101/102/62 102/104/62 96/98/62 95/99/62
f 99/102/58 91/97/58 94/97/58 101/102/58
f 100/104/61 90/98/61 96/98/61 102/104/61
f 91/97/59 92/96/59 93/96/59 94/97/59
f 92/96/61 100/104/61 102/104/61 93/96/61
f 89/99/58 99/102/58 101/102/58 95/99/58
f 94/97/63 93/96/63 102/104/63 101/102/63
f 92/96/61 88/107/61 98/105/61 100/104/61
f 87/92/58 91/97/58 99/102/58 97/93/58
f 97/93/58 85/103/58 104/103/58 103/93/58
f 103/108/64 106/109/64 107/95/64 108/94/64
f 104/110/65 105/111/65 106/109/65 103/108/65
f 88/95/66 87/94/66 108/94/66 107/95/66
f 85/101/67 86/100/67 105/100/67 104/101/67
f 86/106/61 98/105/61 106/105/61 105/106/61
f 98/105/61 88/107/61 107/107/61 106/105/61
o Cube.005
v -0.342461 5.693880 4.724431
v -0.342461 6.040210 5.315339
v -0.342461 7.867792 3.450305
v -0.342461 8.214122 4.041213
v 0.342461 5.693880 4.724431
v 0.342461 6.040210 5.315339
v 0.342461 7.867792 3.450305
v 0.342461 8.214122 4.041213
vn -1.0000 -0.0000 -0.0000
vn -0.0000 0.8627 -0.5056
vn 1.0000 -0.0000 -0.0000
vn -0.0000 -0.8627 0.5056
vn -0.0000 -0.5056 -0.8627
vn -0.0000 0.5056 0.8627
vt 0.375000 0.000000
vt 0.625000 0.000000
vt 0.625000 0.250000
vt 0.375000 0.250000
vt 0.625000 0.500000
vt 0.375000 0.500000
vt 0.625000 0.750000
vt 0.375000 0.750000
vt 0.625000 1.000000
vt 0.375000 1.000000
vt 0.125000 0.500000
vt 0.125000 0.750000
vt 0.875000 0.500000
vt 0.875000 0.750000
s 0
usemtl Material.007
f 109/112/68 110/113/68 112/114/68 111/115/68
f 111/115/69 112/114/69 116/116/69 115/117/69
f 115/117/70 116/116/70 114/118/70 113/119/70
f 113/119/71 114/118/71 110/120/71 109/121/71
f 111/122/72 115/117/72 113/119/72 109/123/72
f 116/116/73 112/124/73 110/125/73 114/118/73
o Cube.006
v -0.342461 1.431809 6.458646
v -0.342461 1.700720 7.088570
v -0.342461 5.463141 4.737696
v -0.342461 5.732052 5.367620
v 0.342461 1.431809 6.458646
v 0.342461 1.700720 7.088570
v 0.342461 5.463141 4.737696
v 0.342461 5.732052 5.367620
vn -1.0000 -0.0000 -0.0000
vn -0.0000 0.9197 -0.3926
vn 1.0000 -0.0000 -0.0000
vn -0.0000 -0.9197 0.3926
vn -0.0000 -0.3926 -0.9197
vn -0.0000 0.3926 0.9197
vt 0.375000 0.000000
vt 0.625000 0.000000
vt 0.625000 0.250000
vt 0.375000 0.250000
vt 0.625000 0.500000
vt 0.375000 0.500000
vt 0.625000 0.750000
vt 0.375000 0.750000
vt 0.625000 1.000000
vt 0.375000 1.000000
vt 0.125000 0.500000
vt 0.125000 0.750000
vt 0.875000 0.500000
vt 0.875000 0.750000
s 0
usemtl Material.007
f 117/126/74 118/127/74 120/128/74 119/129/74
f 119/129/75 120/128/75 124/130/75 123/131/75
f 123/131/76 124/130/76 122/132/76 121/133/76
f 121/133/77 122/132/77 118/134/77 117/135/77
f 119/136/78 123/131/78 121/133/78 117/137/78
f 124/130/79 120/138/79 118/139/79 122/132/79
o Cube.007
v 0.342460 1.431809 -6.663666
v 0.342460 1.700720 -7.293590
v 0.342461 5.463141 -4.942716
v 0.342461 5.732052 -5.572640
v -0.342461 1.431809 -6.663666
v -0.342461 1.700720 -7.293590
v -0.342461 5.463141 -4.942716
v -0.342461 5.732052 -5.572640
vn 1.0000 -0.0000 -0.0000
vn -0.0000 0.9197 0.3926
vn -1.0000 -0.0000 -0.0000
vn -0.0000 -0.9197 -0.3926
vn -0.0000 -0.3926 0.9197
vn -0.0000 0.3926 -0.9197
vt 0.375000 0.000000
vt 0.625000 0.000000
vt 0.625000 0.250000
vt 0.375000 0.250000
vt 0.625000 0.500000
vt 0.375000 0.500000
vt 0.625000 0.750000
vt 0.375000 0.750000
vt 0.625000 1.000000
vt 0.375000 1.000000
vt 0.125000 0.500000
vt 0.125000 0.750000
vt 0.875000 0.500000
vt 0.875000 0.750000
s 0
usemtl Material.007
f 125/140/80 126/141/80 128/142/80 127/143/80
f 127/143/81 128/142/81 132/144/81 131/145/81
f 131/145/82 132/144/82 130/146/82 129/147/82
f 129/147/83 130/146/83 126/148/83 125/149/83
f 127/150/84 131/145/84 129/147/84 125/151/84
f 132/144/85 128/152/85 126/153/85 130/146/85
o Cube.008
v 0.342461 5.693880 -4.929451
v 0.342461 6.040210 -5.520359
v 0.342461 7.867792 -3.655325
v 0.342461 8.214122 -4.246233
v -0.342461 5.693880 -4.929451
v -0.342461 6.040210 -5.520359
v -0.342460 7.867792 -3.655325
v -0.342460 8.214122 -4.246233
vn 1.0000 -0.0000 -0.0000
vn -0.0000 0.8627 0.5056
vn -1.0000 -0.0000 -0.0000
vn -0.0000 -0.8627 -0.5056
vn -0.0000 -0.5056 0.8627
vn -0.0000 0.5056 -0.8627
vt 0.375000 0.000000
vt 0.625000 0.000000
vt 0.625000 0.250000
vt 0.375000 0.250000
vt 0.625000 0.500000
vt 0.375000 0.500000
vt 0.625000 0.750000
vt 0.375000 0.750000
vt 0.625000 1.000000
vt 0.375000 1.000000
vt 0.125000 0.500000
vt 0.125000 0.750000
vt 0.875000 0.500000
vt 0.875000 0.750000
s 0
usemtl Material.007
f 133/154/86 134/155/86 136/156/86 135/157/86
f 135/157/87 136/156/87 140/158/87 139/159/87
f 139/159/88 140/158/88 138/160/88 137/161/88
f 137/161/89 138/160/89 134/162/89 133/163/89
f 135/164/90 139/159/90 137/161/90 133/165/90
f 140/158/91 136/166/91 134/167/91 138/160/91
o Cube.009
v 0.207439 2.221937 -1.326304
v 0.155775 3.750670 -1.326304
v 0.207439 2.221937 -0.921354
v 0.155775 3.750670 -0.921354
v -0.174499 2.209029 -1.326304
v -0.226164 3.737762 -1.326304
v -0.174499 2.209029 -0.921354
v -0.226164 3.737762 -0.921354
vn 0.0338 -0.9994 -0.0000
vn -0.0000 -0.0000 1.0000
vn -0.9994 -0.0338 -0.0000
vn -0.0338 0.9994 -0.0000
vn 0.9994 0.0338 -0.0000
vn -0.0000 -0.0000 -1.0000
vt 0.625000 0.500000
vt 0.875000 0.500000
vt 0.875000 0.750000
vt 0.625000 0.750000
vt 0.375000 0.750000
vt 0.625000 1.000000
vt 0.375000 1.000000
vt 0.375000 0.000000
vt 0.625000 0.000000
vt 0.625000 0.250000
vt 0.375000 0.250000
vt 0.125000 0.500000
vt 0.375000 0.500000
vt 0.125000 0.750000
s 0
usemtl Material.009
f 141/168/92 143/171/92 147/170/92 145/169/92
f 144/172/93 148/174/93 147/173/93 143/171/93
f 148/175/94 146/178/94 145/177/94 147/176/94
f 146/179/95 148/181/95 144/172/95 142/180/95
f 142/180/96 144/172/96 143/171/96 141/168/96
f 146/178/97 142/180/97 141/168/97 145/177/97
o Cube.010
v 0.191078 -1.436972 -1.328345
v 0.191078 2.211781 -1.328345
v 0.191078 -1.436972 -0.923395
v 0.191078 2.211781 -0.923395
v -0.191078 -1.436972 -1.328345
v -0.191078 2.211781 -1.328345
v -0.191078 -1.436972 -0.923395
v -0.191078 2.211781 -0.923395
vn -0.0000 -1.0000 -0.0000
vn -0.0000 -0.0000 1.0000
vn -1.0000 -0.0000 -0.0000
vn -0.0000 1.0000 -0.0000
vn 1.0000 -0.0000 -0.0000
vn -0.0000 -0.0000 -1.0000
vt 0.625000 0.500000
vt 0.875000 0.500000
vt 0.875000 0.750000
vt 0.625000 0.750000
vt 0.375000 0.750000
vt 0.625000 1.000000
vt 0.375000 1.000000
vt 0.375000 0.000000
vt 0.625000 0.000000
vt 0.625000 0.250000
vt 0.375000 0.250000
vt 0.125000 0.500000
vt 0.375000 0.500000
vt 0.125000 0.750000
s 0
usemtl Material.009
f 149/182/98 151/185/98 155/184/98 153/183/98
f 152/186/99 156/188/99 155/187/99 151/185/99
f 156/189/100 154/192/100 153/191/100 155/190/100
f 154/193/101 156/195/101 152/186/101 150/194/101
f 150/194/102 152/186/102 151/185/102 149/182/102
f 154/192/103 150/194/103 149/182/103 153/191/103
o Cube.011
v 1.421849 -1.797213 1.338557
v 1.421849 -1.470186 1.338557
v -0.578151 -1.797213 1.338557
v -0.578151 -1.470186 1.338557
v 1.421849 -1.797213 0.676934
v 1.421849 -1.470186 0.676934
v -0.578151 -1.797213 0.676934
v -0.578151 -1.470186 0.676934
vn -0.0000 -0.0000 1.0000
vn -1.0000 -0.0000 -0.0000
vn -0.0000 -0.0000 -1.0000
vn 1.0000 -0.0000 -0.0000
vn -0.0000 -1.0000 -0.0000
vn -0.0000 1.0000 -0.0000
vt 0.375000 0.000000
vt 0.625000 0.000000
vt 0.625000 0.250000
vt 0.375000 0.250000
vt 0.625000 0.500000
vt 0.375000 0.500000
vt 0.625000 0.750000
vt 0.375000 0.750000
vt 0.625000 1.000000
vt 0.375000 1.000000
vt 0.125000 0.500000
vt 0.125000 0.750000
vt 0.875000 0.500000
vt 0.875000 0.750000
s 0
usemtl Material.007
f 157/196/104 158/197/104 160/198/104 159/199/104
f 159/199/105 160/198/105 164/200/105 163/201/105
f 163/201/106 164/200/106 162/202/106 161/203/106
f 161/203/107 162/202/107 158/204/107 157/205/107
f 159/206/108 163/201/108 161/203/108 157/207/108
f 164/200/109 160/208/109 158/209/109 162/202/109
o Cube.012
v 1.421849 -1.797213 -0.786322
v 1.421849 -1.470186 -0.786322
v -0.578151 -1.797213 -0.786322
v -0.578151 -1.470186 -0.786322
v 1.421849 -1.797213 -1.447945
v 1.421849 -1.470186 -1.447945
v -0.578151 -1.797213 -1.447946
v -0.578151 -1.470186 -1.447946
vn -0.0000 -0.0000 1.0000
vn -1.0000 -0.0000 -0.0000
vn -0.0000 -0.0000 -1.0000
vn 1.0000 -0.0000 -0.0000
vn -0.0000 -1.0000 -0.0000
vn -0.0000 1.0000 -0.0000
vt 0.375000 0.000000
vt 0.625000 0.000000
vt 0.625000 0.250000
vt 0.375000 0.250000
vt 0.625000 0.500000
vt 0.375000 0.500000
vt 0.625000 0.750000
vt 0.375000 0.750000
vt 0.625000 1.000000
vt 0.375000 1.000000
vt 0.125000 0.500000
vt 0.125000 0.750000
vt 0.875000 0.500000
vt 0.875000 0.750000
s 0
usemtl Material.007
f 165/210/110 166/211/110 168/212/110 167/213/110
f 167/213/111 168/212/111 172/214/111 171/215/111
f 171/215/112 172/214/112 170/216/112 169/217/112
f 169/217/113 170/216/113 166/218/113 165/219/113
f 167/220/114 171/215/114 169/217/114 165/221/114
f 172/214/115 168/222/115 166/223/115 170/216/115
